<?xml version="1.0" encoding="UTF-8" standalone="no"?>
<!-- Created with Inkscape (http://www.inkscape.org/) -->

<svg
   width="1331.2858"
   height="372.52905"
   viewBox="0 0 352.23601 98.564975"
   version="1.1"
   id="svg1"
   xml:space="preserve"
   xmlns="http://www.w3.org/2000/svg"
   xmlns:svg="http://www.w3.org/2000/svg"><defs
     id="defs1"><rect
       x="743.3161"
       y="571.151"
       width="964.67126"
       height="87.448952"
       id="rect24" /><rect
       x="869.02399"
       y="672.26385"
       width="787.04059"
       height="68.319496"
       id="rect25" /></defs><g
     id="layer1"
     transform="translate(-35.6806,-471.99774)"><text
       xml:space="preserve"
       transform="matrix(0.34660534,0,0,0.34660534,-150.05983,311.25644)"
       id="text23"
       style="font-style:normal;font-variant:normal;font-weight:normal;font-stretch:normal;font-size:108.109px;line-height:25.1785px;font-family:Arimo;-inkscape-font-specification:'Arimo, @wght=500';font-variant-ligatures:normal;font-variant-caps:normal;font-variant-numeric:normal;font-variant-east-asian:normal;font-variation-settings:'wght' 500;text-align:center;letter-spacing:5px;writing-mode:lr-tb;direction:ltr;white-space:pre;shape-inside:url(#rect24);fill:#ffffff;fill-opacity:0.988235;stroke-width:0.152671;stroke-linecap:round"><tspan
         x="894.7408"
         y="617.28745"
         id="tspan1">RigneyMade</tspan></text><path
       d="m 108.08754,472.01124 c -1.59175,0.0865 -3.49492,0.52769 -5.5711,1.28896 -4.54165,1.67826 -10.88266,5.74411 -17.22368,11.0557 -1.30626,1.08999 -2.8115,2.37895 -2.99316,2.55197 -0.0692,0.0778 -0.38064,0.35468 -0.68342,0.61421 -0.73531,0.6315 -1.48793,1.30626 -2.11943,1.90317 -0.28548,0.26817 -0.92563,0.85642 -1.42738,1.30626 -0.50174,0.44984 -2.64713,2.54333 -4.76657,4.66276 -3.8496,3.8496 -5.39808,5.47594 -10.20791,10.73561 -0.70936,0.77857 -2.91531,3.26998 -3.84959,4.35998 -0.24223,0.28548 -0.83048,0.96889 -1.30627,1.51389 -2.96721,3.45165 -7.10228,8.52966 -9.5418,11.72179 -2.8807,3.76308 -5.12125,6.79085 -6.47077,8.72863 -1.51389,2.16269 -3.99666,5.94308 -3.99666,6.07284 0,0.0346 -0.17301,0.34603 -0.38928,0.69206 -0.21627,0.33738 -0.38929,0.64015 -0.38929,0.66611 0,0.0346 -0.12111,0.25087 -0.25952,0.50174 -0.51039,0.85643 -1.21111,2.29245 -1.21111,2.47412 0,0.32008 0.32873,0.6315 0.65746,0.6315 0.51905,0 1.41008,-0.96888 4.07451,-4.45514 0.37199,-0.47579 1.0554,-1.34952 1.53984,-1.94643 0.48444,-0.5969 1.11595,-1.39276 1.41008,-1.7734 0.29412,-0.38064 0.70936,-0.90833 0.92563,-1.16786 0.21627,-0.25952 0.57095,-0.70936 0.79587,-0.99483 1.34087,-1.7042 4.84443,-5.89982 6.12474,-7.35315 0.38064,-0.42389 0.96024,-1.09 1.28897,-1.47063 0.32873,-0.38064 0.83047,-0.94294 1.1246,-1.25437 0.29412,-0.31143 0.64015,-0.70071 0.77857,-0.86508 0.12976,-0.16436 0.65746,-0.75261 1.16785,-1.29761 0.5104,-0.545 1.1419,-1.22841 1.39277,-1.51389 0.69206,-0.76991 2.31841,-2.50871 3.59007,-3.84093 0.62286,-0.64881 1.64365,-1.7215 2.28381,-2.38761 3.18348,-3.3219 11.02973,-11.02109 14.02289,-13.75473 0.31143,-0.28547 0.87373,-0.80452 1.25436,-1.16785 0.96889,-0.90834 2.18865,-2.00698 3.15754,-2.85476 0.44984,-0.39793 1.02079,-0.89967 1.25436,-1.11594 0.70936,-0.64016 1.09864,-0.97754 1.55714,-1.34953 0.24222,-0.19031 0.74396,-0.61419 1.12459,-0.95157 0.38063,-0.33739 1.06405,-0.90834 1.51389,-1.27167 0.44984,-0.36333 1.28896,-1.03809 1.85992,-1.50523 1.16785,-0.94293 1.2111,-0.97754 3.13157,-2.41357 6.55729,-4.91364 11.60069,-7.73379 15.55408,-8.70268 0.88238,-0.21627 2.11079,-0.24223 2.69904,-0.0432 1.7215,0.57094 2.62118,3.14887 2.62118,7.53483 0,1.51388 -0.16437,4.10911 -0.29413,4.72332 -0.0259,0.11246 -0.12976,0.75261 -0.22492,1.41872 -0.28547,1.85126 -0.93428,4.86173 -1.41873,6.57458 -0.0692,0.23357 -0.22491,0.82182 -0.35468,1.29762 -0.34602,1.30626 -1.02078,3.49491 -1.46197,4.75792 -1.03809,2.97587 -1.63499,4.62816 -1.93778,5.36348 -1.10729,2.72499 -2.51737,6.07283 -2.95855,7.01577 -0.19032,0.39794 -0.34604,0.74396 -0.34604,0.76991 0,0.0173 -0.17301,0.4066 -0.38928,0.85644 -0.21627,0.45848 -0.38929,0.84777 -0.38929,0.86508 0,0.0605 -1.50523,3.15752 -2.48276,5.11259 -1.52253,3.04508 -2.66444,5.22507 -4.29079,8.17498 -1.10729,2.01562 -1.08999,1.98967 -1.28031,1.98967 -0.10381,0 -0.51039,-0.21626 -0.91698,-0.48444 -0.40658,-0.26818 -1.03809,-0.62285 -1.40142,-0.77856 -0.36333,-0.16437 -0.73532,-0.33739 -0.83047,-0.38064 -0.86508,-0.41523 -2.53468,-0.69206 -4.11777,-0.69206 -3.70253,0 -7.18879,1.44468 -11.2114,4.63681 -1.50523,1.20245 -4.68007,4.62816 -5.93443,6.41887 -2.24055,3.20078 -4.12641,6.87736 -5.19911,10.1387 -0.18167,0.55364 -0.71801,2.3357 -0.77857,2.59523 -0.0519,0.22492 -0.41524,1.88587 -0.57095,2.63848 -0.16436,0.75262 -0.27682,2.89801 -0.21627,4.10912 0.0606,1.32356 0.19897,2.05888 0.5796,3.11428 0.32008,0.89968 0.42389,1.10729 0.86508,1.7734 2.50007,3.75444 7.40506,3.9707 12.90695,0.5796 3.07103,-1.89451 6.61784,-5.08664 10.14735,-9.14385 2.2838,-2.62984 4.68006,-5.83063 7.41371,-9.92244 0.5623,-0.84777 1.07269,-1.53984 1.1419,-1.53984 0.22492,0 0.31143,0.19897 1.37547,3.15753 1.7042,4.74063 3.3219,6.82546 5.81332,7.48292 1.86856,0.49309 3.93609,-0.0605 6.64378,-1.75611 1.21976,-0.76991 1.6177,-1.03808 2.94992,-2.00697 0.71801,-0.51904 1.47063,-1.07269 1.68689,-1.2284 0.20762,-0.14707 0.78723,-0.57096 1.28896,-0.93429 3.58143,-2.61253 6.6092,-4.23023 8.71998,-4.67142 2.91531,-0.60555 6.01228,0.90833 10.18195,4.9742 1.48794,1.44467 2.7423,2.46547 3.50357,2.85476 0.94293,0.48443 2.27515,0.73531 2.68173,0.51904 0.27682,-0.14707 0.36333,-0.59691 0.26818,-1.34953 -0.13841,-1.07269 -0.64881,-2.3357 -1.36682,-3.34784 -2.20595,-3.14888 -5.5884,-6.29776 -7.94141,-7.41372 -1.26301,-0.59689 -1.56579,-0.70935 -2.75094,-1.01213 -1.20246,-0.31143 -1.25436,-0.32008 -2.87206,-0.31143 -1.60904,0 -1.6696,0.009 -2.83745,0.31143 -0.65746,0.17301 -1.45333,0.41524 -1.77341,0.545 -0.6315,0.24221 -2.68173,1.23705 -3.06236,1.48793 -0.12977,0.0778 -0.51906,0.32008 -0.86508,0.52769 -1.38413,0.83913 -2.83746,1.85127 -5.82197,4.07452 -3.07967,2.29246 -5.5884,3.76309 -6.73894,3.9534 -0.37199,0.0605 -0.73532,-0.12976 -1.08135,-0.5623 -0.32008,-0.41524 -0.96024,-1.78205 -1.32356,-2.8288 -0.14707,-0.42388 -0.30279,-0.84777 -0.34604,-0.93428 -0.0432,-0.0778 -0.25087,-0.64017 -0.46714,-1.25437 -0.80452,-2.2665 -0.89103,-2.50007 -1.24572,-3.3911 -0.19896,-0.50175 -0.51039,-1.21976 -0.6834,-1.60039 -0.18167,-0.38063 -0.35468,-0.81318 -0.38064,-0.96889 -0.0605,-0.29413 -0.0692,-0.26818 0.84778,-1.92912 0.27682,-0.50175 0.64015,-1.1592 0.80452,-1.47063 0.16436,-0.31142 0.53635,-1.01214 0.83912,-1.55714 0.5796,-1.06404 3.2873,-6.47943 3.95341,-7.91545 0.22492,-0.4758 0.62285,-1.32357 0.88237,-1.87722 0.26818,-0.5623 0.48445,-1.03809 0.48445,-1.05539 0,-0.0259 0.0951,-0.25087 0.20761,-0.50174 0.11246,-0.25088 0.44985,-1.02079 0.74398,-1.71285 0.30277,-0.69207 0.6834,-1.5831 0.86507,-1.98969 0.36332,-0.83047 0.83046,-1.99832 2.19729,-5.51054 1.04674,-2.69903 2.77689,-7.93275 3.46895,-10.53663 0.12977,-0.47579 0.26818,-0.98619 0.31143,-1.1246 0.0346,-0.14706 0.16437,-0.66611 0.28548,-1.16786 0.12111,-0.50174 0.27683,-1.12459 0.34603,-1.38412 0.14706,-0.55365 0.33738,-1.34951 0.51905,-2.20595 0.0692,-0.33737 0.18166,-0.88237 0.25952,-1.2111 0.24222,-1.1592 0.39793,-2.09349 0.65746,-3.97936 0.51039,-3.75442 0.55365,-4.33402 0.55365,-8.00195 0,-3.06237 -0.0173,-3.53817 -0.18167,-4.58491 -0.19897,-1.23707 -0.57095,-2.95857 -0.76126,-3.46032 -0.96024,-2.56927 -2.10215,-4.16102 -3.76309,-5.24236 -1.64365,-1.05539 -3.56412,-1.54849 -5.62299,-1.44468 z M 89.6268,537.77439 c 1.04674,0.33738 2.10213,0.99483 2.3011,1.43602 0.0952,0.21627 -0.0605,0.51905 -1.35817,2.59524 -1.96372,3.12292 -3.85824,5.88252 -6.02093,8.73728 -3.08833,4.08316 -5.16451,6.46212 -7.74244,8.86704 -1.25436,1.1765 -3.45166,2.8807 -4.18697,3.26133 -0.16437,0.0865 -0.4758,0.25953 -0.69207,0.38063 -0.6315,0.36333 -1.28031,0.54501 -1.51388,0.4412 -0.71801,-0.32874 -0.76992,-3.73714 -0.10381,-6.46213 0.60555,-2.46547 1.16785,-3.99665 2.2665,-6.1853 0.75262,-1.50523 1.40143,-2.62118 2.14539,-3.70253 0.25088,-0.35469 0.57096,-0.83047 0.71802,-1.04675 1.1765,-1.7561 3.59007,-4.26482 5.52784,-5.7268 1.85126,-1.41008 4.42054,-2.60389 6.01228,-2.7942 0.67476,-0.0778 2.12809,0.0259 2.64714,0.19897 z"
       id="path23"
       style="fill:#ffffff;fill-opacity:1;stroke:none;stroke-width:0.0352777" /><text
       xml:space="preserve"
       transform="matrix(0.27410574,0,0,0.27410574,-70.95248,362.01356)"
       id="text24"
       style="font-style:normal;font-variant:normal;font-weight:normal;font-stretch:normal;font-size:69.4987px;line-height:25.1785px;font-family:Arimo;-inkscape-font-specification:'Arimo, Normal ';font-variant-ligatures:normal;font-variant-caps:normal;font-variant-numeric:normal;font-variant-east-asian:normal;text-align:center;letter-spacing:9.6526px;writing-mode:lr-tb;direction:ltr;white-space:pre;shape-inside:url(#rect25);fill:#ffffff;fill-opacity:0.988235;stroke-width:0.193052;stroke-linecap:round"><tspan
         x="894.63479"
         y="706.41939"
         id="tspan3"><tspan
           style="-inkscape-font-specification:'Arimo, @wght=600';font-variation-settings:'wght' 600"
           id="tspan2">DIGITAL DESIGNS</tspan></tspan></text></g></svg>
