<?xml version="1.0" encoding="UTF-8" standalone="no"?>
<!-- Created with Inkscape (http://www.inkscape.org/) -->

<svg
   width="1306.6907"
   height="271.41608"
   viewBox="0 0 345.72856 71.812168"
   version="1.1"
   id="svg1"
   xml:space="preserve"
   xmlns:xlink="http://www.w3.org/1999/xlink"
   xmlns="http://www.w3.org/2000/svg"
   xmlns:svg="http://www.w3.org/2000/svg"><defs
     id="defs1"><linearGradient
       id="linearGradient1"><stop
         style="stop-color:#093c4b;stop-opacity:1;"
         offset="0"
         id="stop1" /><stop
         style="stop-color:#22b7e6;stop-opacity:0.9537856;"
         offset="1"
         id="stop2" /></linearGradient><linearGradient
       xlink:href="#linearGradient1"
       id="linearGradient20"
       gradientUnits="userSpaceOnUse"
       gradientTransform="matrix(0.06302752,0,0,0.06302752,575.28614,87.452183)"
       x1="54"
       y1="112.54321"
       x2="1593.9362"
       y2="1605.1819" /></defs><g
     id="layer1"
     transform="translate(-578.68963,-94.545531)"><g
       id="g22"><path
         d="m 631.44366,94.555387 c -1.15971,0.06302 -2.54631,0.384463 -4.05897,0.939107 -3.30894,1.222742 -7.92886,4.185028 -12.54878,8.054926 -0.95171,0.79414 -2.0484,1.73325 -2.18075,1.85931 -0.0504,0.0567 -0.27732,0.25841 -0.49792,0.4475 -0.53573,0.46009 -1.08407,0.95171 -1.54417,1.3866 -0.208,0.19539 -0.67439,0.62397 -1.03996,0.95172 -0.36555,0.32774 -1.92864,1.85301 -3.47281,3.39718 -2.80473,2.80473 -3.93292,3.98964 -7.43725,7.82172 -0.51683,0.56724 -2.12403,2.38243 -2.80473,3.17658 -0.17647,0.20799 -0.60506,0.70591 -0.95171,1.10298 -2.16185,2.5148 -5.17456,6.21452 -6.95194,8.54023 -2.09881,2.7417 -3.73123,4.94766 -4.71446,6.35948 -1.10298,1.57569 -2.91187,4.32999 -2.91187,4.42453 0,0.0252 -0.12605,0.25211 -0.28362,0.50422 -0.15757,0.24581 -0.28362,0.4664 -0.28362,0.48532 0,0.0252 -0.0882,0.18277 -0.18909,0.36555 -0.37186,0.62398 -0.88238,1.67023 -0.88238,1.80259 0,0.2332 0.2395,0.4601 0.47901,0.4601 0.37816,0 1.02735,-0.70591 2.96859,-3.24592 0.27102,-0.34665 0.76894,-0.98323 1.12189,-1.41812 0.35296,-0.43489 0.81306,-1.01473 1.02735,-1.29206 0.2143,-0.27733 0.51683,-0.66179 0.6744,-0.85088 0.15756,-0.18908 0.41598,-0.51682 0.57985,-0.72481 0.97693,-1.24164 3.52954,-4.29847 4.46235,-5.35733 0.27732,-0.30884 0.6996,-0.79415 0.93911,-1.07147 0.2395,-0.27733 0.60506,-0.68701 0.81936,-0.91391 0.21429,-0.2269 0.4664,-0.51052 0.56724,-0.63027 0.0945,-0.11975 0.47901,-0.54834 0.85087,-0.94541 0.37187,-0.39708 0.83197,-0.89499 1.01475,-1.10299 0.50422,-0.56094 1.68913,-1.82779 2.61564,-2.79841 0.4538,-0.47271 1.19752,-1.25425 1.66393,-1.73956 2.31941,-2.42026 8.03601,-8.02971 10.21676,-10.02138 0.2269,-0.20799 0.63657,-0.58616 0.91389,-0.85087 0.70591,-0.6618 1.5946,-1.46224 2.30051,-2.07991 0.32775,-0.28993 0.74373,-0.65548 0.9139,-0.81305 0.51683,-0.46641 0.80045,-0.71222 1.1345,-0.98324 0.17648,-0.13865 0.54203,-0.44748 0.81935,-0.69329 0.27732,-0.24582 0.77524,-0.6618 1.10299,-0.92651 0.32774,-0.26471 0.9391,-0.75633 1.35509,-1.09668 0.85087,-0.68699 0.88238,-0.71221 2.28159,-1.75847 4.77749,-3.57997 8.452,-5.634659 11.33235,-6.34057 0.64288,-0.157569 1.53787,-0.176483 1.96646,-0.03148 1.25424,0.415974 1.90973,2.29419 1.90973,5.48971 0,1.10298 -0.11976,2.9938 -0.2143,3.4413 -0.0189,0.0819 -0.0945,0.54833 -0.16387,1.03365 -0.20799,1.34878 -0.68069,3.54214 -1.03365,4.79009 -0.0504,0.17017 -0.16387,0.59876 -0.25842,0.94541 -0.2521,0.95171 -0.74371,2.54631 -1.06515,3.46651 -0.75633,2.16816 -1.19122,3.37198 -1.41183,3.90771 -0.80674,1.98537 -1.83409,4.42453 -2.15553,5.11153 -0.13866,0.28993 -0.25211,0.54204 -0.25211,0.56094 0,0.0126 -0.12606,0.29624 -0.28362,0.62398 -0.15757,0.33404 -0.28363,0.61767 -0.28363,0.63028 0,0.0441 -1.09668,2.3005 -1.80888,3.72492 -1.10929,2.21857 -1.94125,3.80686 -3.12618,5.9561 -0.80674,1.46854 -0.79414,1.44963 -0.9328,1.44963 -0.0756,0 -0.37186,-0.15756 -0.66809,-0.35295 -0.29623,-0.19539 -0.75633,-0.4538 -1.02104,-0.56724 -0.26472,-0.11976 -0.53574,-0.24582 -0.60507,-0.27733 -0.63027,-0.30253 -1.84671,-0.50422 -3.00011,-0.50422 -2.69758,0 -5.23759,1.05256 -8.16837,3.37828 -1.09667,0.87607 -3.40979,3.37197 -4.32368,4.67664 -1.63242,2.33201 -3.00642,5.01069 -3.78796,7.38682 -0.13236,0.40337 -0.52313,1.70174 -0.56725,1.89083 -0.0378,0.16387 -0.30253,1.374 -0.41598,1.92233 -0.11975,0.54835 -0.20169,2.11143 -0.15757,2.99382 0.0441,0.96431 0.14497,1.50005 0.42229,2.26899 0.2332,0.65549 0.30883,0.80675 0.63027,1.29206 1.8215,2.7354 5.39516,2.89295 9.40371,0.42228 2.23748,-1.3803 4.82161,-3.70601 7.39313,-6.662 1.66392,-1.91605 3.40978,-4.24807 5.40146,-7.22927 0.40968,-0.61767 0.78153,-1.12189 0.83196,-1.12189 0.16387,0 0.2269,0.14496 1.00213,2.3005 1.24165,3.45391 2.42027,4.97287 4.23546,5.45188 1.36139,0.35926 2.86774,-0.0441 4.8405,-1.27946 0.88869,-0.56094 1.17862,-0.75632 2.14925,-1.46223 0.52312,-0.37816 1.07146,-0.78154 1.22903,-0.89498 0.15126,-0.10716 0.57355,-0.41599 0.9391,-0.68071 2.60935,-1.90343 4.81532,-3.08205 6.35318,-3.40349 2.12403,-0.44119 4.38041,0.66179 7.41834,3.62409 1.08408,1.05256 1.99798,1.79629 2.55262,2.07992 0.687,0.35294 1.65762,0.53573 1.95385,0.37816 0.20168,-0.10716 0.26471,-0.4349 0.19539,-0.98324 -0.10085,-0.78154 -0.47271,-1.70174 -0.99584,-2.43916 -1.6072,-2.2942 -4.07158,-4.5884 -5.78593,-5.40147 -0.9202,-0.43488 -1.1408,-0.51681 -2.00427,-0.73741 -0.87608,-0.2269 -0.9139,-0.23321 -2.09252,-0.2269 -1.17231,0 -1.21643,0.007 -2.0673,0.2269 -0.47901,0.12605 -1.05886,0.30253 -1.29206,0.39707 -0.4601,0.17647 -1.95385,0.90129 -2.23117,1.08407 -0.0945,0.0567 -0.37817,0.23321 -0.63028,0.38447 -1.00844,0.61137 -2.06731,1.34879 -4.24175,2.9686 -2.24378,1.67023 -4.07158,2.7417 -4.90984,2.88036 -0.27102,0.0441 -0.53574,-0.0945 -0.78785,-0.40968 -0.2332,-0.30254 -0.69961,-1.29836 -0.96431,-2.061 -0.10715,-0.30883 -0.22061,-0.61767 -0.25212,-0.6807 -0.0315,-0.0567 -0.18278,-0.46641 -0.34035,-0.9139 -0.58615,-1.65132 -0.64918,-1.8215 -0.9076,-2.47068 -0.14496,-0.36556 -0.37186,-0.88869 -0.49791,-1.16601 -0.13236,-0.27732 -0.25841,-0.59246 -0.27732,-0.70591 -0.0441,-0.2143 -0.0504,-0.19539 0.61767,-1.40551 0.20168,-0.36557 0.4664,-0.84457 0.58615,-1.07147 0.11975,-0.22689 0.39078,-0.73742 0.61137,-1.1345 0.42228,-0.77523 2.39505,-4.72076 2.88036,-5.76701 0.16387,-0.34666 0.4538,-0.96432 0.64288,-1.3677 0.19539,-0.40968 0.35296,-0.75633 0.35296,-0.76893 0,-0.0189 0.0693,-0.18278 0.15126,-0.36556 0.0819,-0.18279 0.32775,-0.74373 0.54204,-1.24794 0.22059,-0.50423 0.49791,-1.15341 0.63027,-1.44965 0.26471,-0.60506 0.60506,-1.45593 1.6009,-4.01485 0.76263,-1.96645 2.02318,-5.77962 2.5274,-7.67675 0.0945,-0.34665 0.19539,-0.71851 0.2269,-0.81936 0.0252,-0.10714 0.11975,-0.48531 0.20799,-0.85087 0.0882,-0.36556 0.20169,-0.81935 0.25211,-1.00844 0.10714,-0.40338 0.24581,-0.98322 0.37817,-1.60721 0.0504,-0.2458 0.13235,-0.64287 0.18908,-0.88237 0.17647,-0.84457 0.28992,-1.52527 0.47901,-2.89928 0.37186,-2.73538 0.40338,-3.15766 0.40338,-5.83003 0,-2.23117 -0.0126,-2.57783 -0.13237,-3.34046 -0.14496,-0.9013 -0.41598,-2.155543 -0.55463,-2.521107 -0.69961,-1.871911 -1.53158,-3.031624 -2.7417,-3.819463 -1.19753,-0.768933 -2.59674,-1.128195 -4.09679,-1.052561 z m -13.45007,47.913523 c 0.76263,0.24581 1.53157,0.72481 1.67653,1.04625 0.0694,0.15757 -0.0441,0.37817 -0.98953,1.89084 -1.43072,2.27529 -2.81103,4.28587 -4.38671,6.36578 -2.25009,2.9749 -3.76275,4.70815 -5.64097,6.46032 -0.9139,0.85717 -2.5148,2.09881 -3.05053,2.37613 -0.11975,0.063 -0.34665,0.18909 -0.50422,0.27732 -0.4601,0.26471 -0.93281,0.39708 -1.10298,0.32145 -0.52313,-0.23951 -0.56095,-2.7228 -0.0756,-4.70816 0.44119,-1.79629 0.85087,-2.91187 1.65132,-4.50647 0.54834,-1.09668 1.02104,-1.90973 1.56308,-2.69758 0.18278,-0.25842 0.41599,-0.60506 0.52313,-0.76264 0.85717,-1.27945 2.61564,-3.10725 4.02746,-4.17241 1.34878,-1.02735 3.2207,-1.89714 4.38041,-2.03579 0.49161,-0.0567 1.55047,0.0189 1.92864,0.14496 z"
         id="path14"
         style="fill:url(#linearGradient20);fill-opacity:1;stroke:none;stroke-width:0.0352777" /><g
         id="g15"
         transform="translate(515.5332)"><path
           d="m 914.95845,587.30409 v 29.98336 h -11.87721 v -74.37773 h 35.68442 q 12.82738,0 19.79535,5.64828 6.96796,5.64827 6.96796,15.94185 0,8.12929 -4.6981,13.77757 -4.69809,5.64827 -12.88017,7.2319 l 20.79831,31.77813 h -13.6192 l -18.63402,-29.98336 z m 38.58774,-22.5403 q 0,-6.12336 -4.11744,-9.29062 -4.06464,-3.16725 -11.87721,-3.16725 h -22.59309 v 25.65477 h 23.01539 q 7.49584,0 11.5077,-3.48398 4.06465,-3.48398 4.06465,-9.71292 z m 42.90149,-25.81314 v 9.71292 h -11.29654 v -9.71292 z m 0,21.22062 v 57.11618 h -11.29654 v -57.11618 z m 42.16252,79.70927 q -9.713,0 -15.5196,-3.8007 -5.8066,-3.74792 -7.3903,-10.71589 l 11.3494,-1.47805 q 0.8974,3.74792 3.9062,5.80664 3.0617,2.1115 7.971,2.1115 6.7568,0 10.0824,-4.06464 3.3256,-4.01186 3.3256,-12.03558 l 0.053,-9.02668 h -0.1056 q -2.5866,5.43713 -7.2846,8.18208 -4.6454,2.69217 -11.0854,2.69217 -10.3464,0 -15.4668,-7.12633 -5.1204,-7.17911 -5.1204,-21.80128 0,-14.72774 5.4371,-22.06521 5.4371,-7.33748 16.2058,-7.33748 6.1234,0 10.5047,2.69217 4.4342,2.69217 6.8624,7.81256 h 0.1584 q 0,-1.10853 0.1056,-3.22004 0.1055,-2.16429 0.2639,-4.06464 0.2112,-1.90036 0.3167,-2.26987 h 10.7159 q -0.3167,3.80071 -0.3167,12.29951 v 43.12747 q 0,12.08836 -6.2817,18.15893 -6.2818,6.12336 -18.6868,6.12336 z m 13.7775,-51.41512 q 0,-9.87128 -3.9063,-15.51955 -3.8535,-5.64827 -10.188,-5.64827 -6.8096,0 -10.0296,5.12039 -3.2201,5.1204 -3.2201,16.15301 0,10.92703 3.0617,15.88906 3.0617,4.96204 10.0297,4.96204 6.4928,0 10.3463,-5.5427 3.9063,-5.59548 3.9063,-15.41398 z m 42.3209,-3.43119 v 32.25322 h -11.2966 v -44.7111 q 0,-4.90924 -0.1056,-7.86535 -0.053,-3.00889 -0.2111,-4.53973 h 10.6631 q 0.1056,0.89739 0.2111,2.69217 0.1056,1.79478 0.1584,3.85349 0.1056,2.05872 0.1584,3.74792 h 0.1583 q 3.2201,-6.12336 7.6014,-8.70995 4.3814,-2.63938 10.7159,-2.63938 9.2906,0 13.7776,5.06761 4.5397,5.06761 4.5397,15.62513 v 37.47919 h -11.2965 v -34.83981 q 0,-7.97093 -2.5866,-11.34934 -2.5866,-3.3784 -8.6572,-3.3784 -6.3345,0 -10.0824,4.69809 -3.7479,4.64531 -3.7479,12.61624 z m 64.5972,5.965 q 0,9.3434 3.7479,14.30544 3.7479,4.96203 10.8214,4.96203 5.4372,0 8.7628,-2.21708 3.3256,-2.21708 4.5397,-5.85942 l 10.188,1.95314 q -5.4371,14.19986 -23.7016,14.19986 -12.7746,0 -19.4786,-7.54862 -6.7041,-7.60142 -6.7041,-22.38195 0,-14.14707 6.7568,-21.6957 6.7569,-7.60141 19.2147,-7.60141 12.5107,0 18.8452,7.81256 6.3873,7.75978 6.3873,23.12097 v 0.95018 z m 28.0302,-7.91814 q -0.6335,-8.34044 -4.1703,-12.24673 -3.4839,-3.90628 -9.8712,-3.90628 -6.3345,0 -9.9769,4.2758 -3.6423,4.27579 -3.9063,11.87721 z m 32.5023,56.64109 q -4.3814,0 -7.4958,-0.63345 v -8.23487 q 2.3226,0.31673 4.6453,0.31673 4.6981,0 8.0765,-3.11447 3.3784,-3.11447 6.1233,-11.13818 l -22.593,-56.74667 h 11.9827 l 10.9799,29.98336 q 1.2669,3.22004 2.6921,7.54862 1.4253,4.2758 2.5338,8.44602 1.3197,-4.11744 2.5866,-7.91814 1.2669,-3.8535 2.5338,-7.75978 l 10.0825,-30.30008 h 11.8772 l -22.1708,58.11915 q -1.6364,4.223 -3.2729,7.44305 -1.5836,3.22004 -3.1144,5.38433 -3.1145,4.48695 -6.8624,6.54566 -3.7479,2.05872 -8.6044,2.05872 z m 68.2395,-70.52423 v 48.0895 h -10.5575 v -74.37773 h 15.7835 l 17.6311,48.24787 q 1.0029,3.22004 1.9531,6.8096 0.9502,3.53677 1.4781,5.75385 0.4223,-1.63642 1.0557,-3.95907 0.6863,-2.32266 1.3725,-4.53974 0.6862,-2.21707 1.0558,-3.3784 l 17.5254,-48.93411 h 15.5196 v 74.37773 h -10.6631 v -48.0895 q 0,-3.27283 0.1056,-7.44305 0.1583,-4.17022 0.4223,-8.55159 -1.5309,5.48991 -2.745,9.66013 -1.2141,4.11743 -2.2171,6.8096 l -17.2615,47.61441 h -8.446 l -17.4199,-47.61441 -5.0149,-16.46973 q 0.1584,4.69809 0.264,8.70995 0.1583,3.95907 0.1583,7.28469 z m 97.6423,49.14525 q -8.4988,0 -12.933,-4.53973 -4.4341,-4.53973 -4.4341,-12.51066 0,-8.86832 5.8066,-13.56641 5.8066,-4.6981 18.1589,-5.01483 l 12.6163,-0.21115 v -3.00889 q 0,-6.54566 -2.6394,-9.44898 -2.5866,-2.90332 -8.2877,-2.90332 -5.6482,0 -8.2348,2.05872 -2.5338,2.05871 -3.1145,6.70402 l -11.7716,-0.8446 q 2.5866,-15.94185 23.4904,-15.94185 10.7687,0 16.3114,5.06761 5.5955,5.06761 5.5955,14.56937 v 23.33212 q 0,4.43416 1.1085,6.49288 1.1086,2.00593 4.0119,2.00593 1.5836,0 3.1672,-0.36952 v 6.59845 q -2.1115,0.52788 -4.0118,0.79182 -1.8476,0.26393 -4.0119,0.26393 -5.3843,0 -7.9181,-2.74495 -2.481,-2.79774 -2.8505,-8.4988 h -0.3168 q -3.4839,6.22893 -8.2876,8.97389 -4.7509,2.74495 -11.4549,2.74495 z m 19.2147,-28.66366 -9.449,0.15836 q -6.1762,0.15836 -9.1851,1.31969 -3.0616,1.16133 -4.6981,3.53677 -1.5836,2.37544 -1.5836,6.28172 0,4.48695 2.2699,6.86239 2.3226,2.32265 6.4401,2.32265 4.6981,0 8.3404,-2.21707 3.6424,-2.21708 5.7539,-6.07058 2.1115,-3.90628 2.1115,-8.0765 z m 68.6618,27.60791 q -0.1056,-0.58066 -0.2639,-2.21708 -0.1584,-1.63641 -0.264,-3.58956 -0.1055,-1.95314 -0.1055,-3.43119 h -0.2112 q -2.5338,5.38434 -6.9679,7.86535 -4.4342,2.42823 -10.9799,2.42823 -10.5047,0 -15.7307,-7.44305 -5.2259,-7.44305 -5.2259,-21.95964 0,-14.72774 5.3843,-22.27637 5.4371,-7.54862 15.9418,-7.54862 6.3873,0 10.7159,2.42823 4.3814,2.42823 6.9152,7.54862 h 0.1056 l -0.1056,-7.39026 v -22.75146 h 11.2966 v 66.35402 q 0,3.85349 0.053,6.86238 0.1056,2.95611 0.264,5.1204 z m -27.9246,-28.55809 q 0,11.19097 3.0617,16.25858 3.1144,5.06761 9.8185,5.06761 7.3374,0 10.8214,-5.43712 3.484,-5.43713 3.484,-16.46973 0,-10.61031 -3.484,-15.7835 -3.4312,-5.22597 -10.7159,-5.22597 -6.8096,0 -9.924,5.17319 -3.0617,5.12039 -3.0617,16.41694 z m 67.0782,2.26987 q 0,9.3434 3.7479,14.30544 3.7479,4.96203 10.8214,4.96203 5.4372,0 8.7628,-2.21708 3.3256,-2.21708 4.5397,-5.85942 l 10.188,1.95314 q -5.4371,14.19986 -23.7016,14.19986 -12.7746,0 -19.4786,-7.54862 -6.7041,-7.60142 -6.7041,-22.38195 0,-14.14707 6.7569,-21.6957 6.7568,-7.60141 19.2146,-7.60141 12.5107,0 18.8452,7.81256 6.3873,7.75978 6.3873,23.12097 v 0.95018 z m 28.0302,-7.91814 q -0.6335,-8.34044 -4.1702,-12.24673 -3.484,-3.90628 -9.8713,-3.90628 -6.3345,0 -9.9769,4.2758 -3.6423,4.27579 -3.9063,11.87721 z"
           id="text14"
           style="font-size:108.109px;line-height:25.1785px;font-family:Arimo;-inkscape-font-specification:'Arimo, @wght=500';font-variation-settings:'wght' 500;text-align:center;letter-spacing:5px;text-anchor:middle;white-space:pre;fill:#0a3744;fill-opacity:0.988235;stroke-width:0.137631;stroke-linecap:round"
           transform="matrix(0.38448176,0,0,0.38448176,-187.88055,-108.80857)"
           aria-label="RigneyMade" /><path
           style="font-size:69.4987px;line-height:25.1785px;font-family:Arimo;-inkscape-font-specification:'Arimo, @wght=600';font-variation-settings:'wght' 600;text-align:center;letter-spacing:9.6526px;text-anchor:middle;white-space:pre;fill:#1a90b2;fill-opacity:0.988235;stroke-width:0.174034;stroke-linecap:round"
           d="m 941.77039,682.12199 q 0,7.63536 -2.95234,13.06494 -2.95234,5.42959 -8.21225,8.34799 -5.22598,2.88447 -12.11477,2.88447 H 899.62322 V 658.6051 h 16.83172 q 12.08083,0 18.69814,6.10828 6.61731,6.07435 6.61731,17.40861 z m -8.89095,0 q 0,-8.11044 -4.30974,-12.35231 -4.27579,-4.2758 -12.31837,-4.2758 h -7.77109 v 34.03672 h 9.19636 q 4.64908,0 8.04257,-2.10396 3.39349,-2.1379 5.25991,-6.04042 1.90036,-3.90251 1.90036,-9.26423 z m 35.68067,-23.51689 v 47.81429 H 959.7031 V 658.6051 Z m 42.29799,41.5024 q 4.174,0 7.9747,-1.22166 3.8007,-1.22166 5.9726,-3.22382 v -7.296 h -12.556 v -6.71912 h 20.6325 v 17.205 q -3.8007,3.90252 -9.7054,6.07435 -5.8708,2.17184 -12.4881,2.17184 -7.6693,0 -13.09885,-2.91841 -5.39565,-2.95233 -8.24618,-8.51766 -2.85054,-5.56532 -2.85054,-13.37035 0,-11.74148 6.27796,-18.05338 6.3119,-6.34583 17.98551,-6.34583 8.2462,0 13.4722,2.98628 5.2259,2.95233 7.6353,9.06062 l -8.2122,2.47725 q -1.6628,-3.76678 -4.9885,-5.6332 -3.3256,-1.86642 -7.9747,-1.86642 -7.4657,0 -11.36817,4.51334 -3.90251,4.51335 -3.90251,12.86134 0,8.41585 4.07219,13.13281 4.07219,4.68302 11.36819,4.68302 z m 50.3745,-41.5024 v 47.81429 h -8.857 V 658.6051 Z m 40.4994,6.92272 v 40.89157 h -8.823 v -40.89157 h -15.7458 v -6.92272 h 40.3825 v 6.92272 z m 36.0879,28.09811 -4.649,12.79346 h -8.9249 l 18.1552,-47.81429 h 10.3162 l 17.9855,47.81429 h -8.8231 l -4.6491,-12.79346 z m 9.7054,-28.4714 q -0.4072,1.52708 -1.0859,3.56317 -0.6787,2.0361 -1.0859,3.15595 l -5.3617,15.03316 h 15.101 l -5.4635,-15.30464 q -0.4751,-1.32346 -1.0181,-2.98627 -0.5429,-1.69675 -1.0859,-3.46137 z m 73.077,34.34214 v 6.92272 h -34.0028 V 658.6051 h 8.857 v 40.89157 z m 86.2588,-17.37468 q 0,7.63536 -2.9524,13.06494 -2.9523,5.42959 -8.2122,8.34799 -5.226,2.88447 -12.1148,2.88447 h -18.8678 V 658.6051 h 16.8317 q 12.0808,0 18.6981,6.10828 6.6174,6.07435 6.6174,17.40861 z m -8.891,0 q 0,-8.11044 -4.3097,-12.35231 -4.2758,-4.2758 -12.3184,-4.2758 h -7.7711 v 34.03672 h 9.1964 q 4.649,0 8.0425,-2.10396 3.3935,-2.1379 5.26,-6.04042 1.9003,-3.90251 1.9003,-9.26423 z m 65.1362,17.37468 v 6.92272 h -38.5501 V 658.6051 h 37.1588 v 6.92272 h -28.3018 v 13.13281 h 26.2657 v 6.88879 h -26.2657 v 13.94725 z m 55.9398,-6.65125 q 0,6.88879 -5.192,10.5877 -5.1921,3.66497 -15.0332,3.66497 -17.9516,0 -20.87,-12.79346 l 8.5516,-1.49314 q 1.0181,3.97038 4.0722,5.80287 3.0881,1.79855 8.4838,1.79855 5.5992,0 8.4837,-1.76462 2.8845,-1.79855 2.8845,-5.32778 0,-2.1379 -1.1538,-3.49529 -1.1538,-1.3574 -3.2578,-2.27364 -1.3574,-0.61083 -3.665,-1.15379 -2.3075,-0.57689 -5.4635,-1.25559 -3.6649,-0.84837 -5.8707,-1.52707 -2.1719,-0.6787 -3.5293,-1.32346 -1.3573,-0.6787 -2.5111,-1.49314 -2.2737,-1.52707 -3.5293,-3.90252 -1.2556,-2.40937 -1.2556,-5.8368 0,-6.34583 4.8188,-9.73932 4.8188,-3.42743 13.9473,-3.42743 8.6194,0 13.031,2.68086 4.4115,2.68086 5.8707,8.95882 l -8.6195,1.25559 q -0.8483,-3.32562 -3.3595,-4.92056 -2.5112,-1.62888 -7.0924,-1.62888 -4.9545,0 -7.4657,1.59494 -2.5112,1.59494 -2.5112,4.75089 0,1.96823 1.0181,3.25775 1.0519,1.25559 3.0541,2.1379 1.8664,0.88231 8.0426,2.20577 3.2238,0.71263 5.7689,1.39133 2.5451,0.6787 4.3097,1.42527 1.4592,0.64476 2.647,1.39133 1.2216,0.74657 2.1039,1.66281 1.595,1.56101 2.4433,3.73284 0.8484,2.17184 0.8484,5.0563 z m 26.6201,-34.24032 v 47.81429 h -8.857 V 658.6051 Z m 42.298,41.5024 q 4.174,0 7.9747,-1.22166 3.8007,-1.22166 5.9725,-3.22382 v -7.296 h -12.5559 v -6.71912 h 20.6324 v 17.205 q -3.8007,3.90252 -9.7054,6.07435 -5.8707,2.17184 -12.488,2.17184 -7.6693,0 -13.0989,-2.91841 -5.3956,-2.95233 -8.2462,-8.51766 -2.8505,-5.56532 -2.8505,-13.37035 0,-11.74148 6.278,-18.05338 6.3119,-6.34583 17.9855,-6.34583 8.2462,0 13.4721,2.98628 5.226,2.95233 7.6354,9.06062 l -8.2123,2.47725 q -1.6628,-3.76678 -4.9884,-5.6332 -3.3256,-1.86642 -7.9747,-1.86642 -7.4657,0 -11.3682,4.51334 -3.9025,4.51335 -3.9025,12.86134 0,8.41585 4.0722,13.13281 4.0722,4.68302 11.3682,4.68302 z m 49.1528,-23.07575 v 29.38764 h -7.8729 V 658.6051 h 10.1466 l 22.7024,38.41432 q -0.5429,-5.66713 -0.5429,-9.43391 V 658.6051 h 7.8729 v 47.81429 h -10.418 l -22.431,-38.10891 q 0.2375,2.51118 0.3733,4.71695 0.1696,2.17184 0.1696,4.00432 z m 90.4516,15.81367 q 0,6.88879 -5.192,10.5877 -5.1921,3.66497 -15.0332,3.66497 -17.9516,0 -20.87,-12.79346 l 8.5516,-1.49314 q 1.0181,3.97038 4.0722,5.80287 3.0881,1.79855 8.4837,1.79855 5.5993,0 8.4838,-1.76462 2.8844,-1.79855 2.8844,-5.32778 0,-2.1379 -1.1537,-3.49529 -1.1538,-1.3574 -3.2578,-2.27364 -1.3574,-0.61083 -3.665,-1.15379 -2.3075,-0.57689 -5.4635,-1.25559 -3.665,-0.84837 -5.8707,-1.52707 -2.1719,-0.6787 -3.5293,-1.32346 -1.3574,-0.6787 -2.5111,-1.49314 -2.2737,-1.52707 -3.5293,-3.90252 -1.2556,-2.40937 -1.2556,-5.8368 0,-6.34583 4.8188,-9.73932 4.8188,-3.42743 13.9472,-3.42743 8.6195,0 13.031,2.68086 4.4116,2.68086 5.8708,8.95882 l -8.6195,1.25559 q -0.8484,-3.32562 -3.3595,-4.92056 -2.5112,-1.62888 -7.0924,-1.62888 -4.9545,0 -7.4657,1.59494 -2.5112,1.59494 -2.5112,4.75089 0,1.96823 1.0181,3.25775 1.0519,1.25559 3.0541,2.1379 1.8664,0.88231 8.0426,2.20577 3.2238,0.71263 5.7689,1.39133 2.5451,0.6787 4.3097,1.42527 1.4592,0.64476 2.647,1.39133 1.2216,0.74657 2.1039,1.66281 1.595,1.56101 2.4433,3.73284 0.8484,2.17184 0.8484,5.0563 z"
           id="text15"
           transform="matrix(0.30405953,0,0,0.30405953,-100.12849,-52.504805)"
           aria-label="DIGITAL DESIGNS" /></g></g></g></svg>
