<?xml version="1.0" encoding="UTF-8" standalone="no"?>
<svg
   version="1.0"
    width="1500.000000pt" height="1500.000000pt" viewBox="0 0 1500.000000 1500.000000"
   preserveAspectRatio="xMidYMid"
   id="svg1"
   xmlns:xlink="http://www.w3.org/1999/xlink"
   xmlns="http://www.w3.org/2000/svg"
   xmlns:svg="http://www.w3.org/2000/svg">
  <defs
     id="defs1">
    <linearGradient
       id="linearGradient1">
      <stop
         style="stop-color:#093c4b;stop-opacity:1;"
         offset="0"
         id="stop1" />
      <stop
         style="stop-color:#22b7e6;stop-opacity:0.9537856;"
         offset="1"
         id="stop2" />
    </linearGradient>
    <linearGradient
       xlink:href="#linearGradient1"
       id="linearGradient2"
       x1="54"
       y1="112.54321"
       x2="1593.9362"
       y2="1605.1819"
       gradientUnits="userSpaceOnUse"
       gradientTransform="translate(-53.999997,-112.54321)" />
  </defs>
  <metadata
     id="metadata1">
Created by potrace 1.10, written by Peter Selinger 2001-2011
</metadata>
  <path
     d="M 837,0.15678636 C 818.6,1.1567863 796.6,6.2567863 772.6,15.056786 c -52.5,19.4 -125.8,66.4 -199.1,127.800004 -15.1,12.6 -32.5,27.5 -34.6,29.5 -0.8,0.9 -4.4,4.1 -7.9,7.1 -8.5,7.3 -17.2,15.1 -24.5,22 -3.3,3.1 -10.7,9.9 -16.5,15.1 -5.8,5.2 -30.6,29.4 -55.1,53.9 -44.5,44.5 -62.4,63.3 -118,124.1 -8.2,9 -33.7,37.8 -44.5,50.4 -2.8,3.3 -9.6,11.2 -15.1,17.5 -34.3,39.9 -82.1,98.6 -110.3,135.5 -33.3,43.5 -59.199997,78.5 -74.799997,100.9 -17.5,25 -46.2,68.7 -46.2,70.2 0,0.4 -2,4 -4.5,8 -2.5,3.9 -4.5,7.4 -4.5,7.7 0,0.4 -1.4,2.9 -3,5.8 -5.9000005,9.9 -14.0000004869565,26.5 -14.0000004869565,28.6 0,3.7 3.7999999869565,7.3 7.5999999869565,7.3 6.0000005,0 16.3000005,-11.2 47.1000005,-51.5 4.3,-5.5 12.2,-15.6 17.8,-22.5 5.6,-6.9 12.9,-16.1 16.3,-20.5 3.4,-4.4 8.2,-10.5 10.7,-13.5 2.499997,-3 6.599997,-8.2 9.199997,-11.5 15.5,-19.7 56,-68.2 70.8,-85 4.4,-4.9 11.1,-12.6 14.9,-17 3.8,-4.4 9.6,-10.9 13,-14.5 3.4,-3.6 7.4,-8.1 9,-10 1.5,-1.9 7.6,-8.7 13.5,-15 5.9,-6.3 13.2,-14.2 16.1,-17.5 8,-8.9 26.8,-29 41.5,-44.4 7.2,-7.5 19,-19.9 26.4,-27.6 36.8,-38.4 127.5,-127.4 162.1,-159 3.6,-3.3 10.1,-9.3 14.5,-13.5 11.2,-10.5 25.3,-23.2 36.5,-33 5.2,-4.6 11.8,-10.4 14.5,-12.9 8.2,-7.4 12.7,-11.3 18,-15.6 2.8,-2.2 8.6,-7.1 13,-11 4.4,-3.9 12.3,-10.5 17.5,-14.7 5.2,-4.2 14.9,-12 21.5,-17.4 13.5,-10.9 14,-11.3 36.2,-27.9 75.8,-56.8 134.1,-89.400004 179.8,-100.600004 10.2,-2.5 24.4,-2.8 31.2,-0.5 19.9,6.6 30.3,36.400004 30.3,87.100004 0,17.5 -1.9,47.5 -3.4,54.6 -0.3,1.3 -1.5,8.7 -2.6,16.4 -3.3,21.4 -10.8,56.2 -16.4,76 -0.8,2.7 -2.6,9.5 -4.1,15 -4,15.1 -11.8,40.4 -16.9,55 -12,34.4 -18.9,53.5 -22.4,62 -12.8,31.5 -29.1,70.2 -34.2,81.1 -2.2,4.6 -4,8.6 -4,8.9 0,0.2 -2,4.7 -4.5,9.9 -2.5,5.3 -4.5,9.8 -4.5,10 0,0.7 -17.4,36.5 -28.7,59.1 -17.6,35.2 -30.8,60.4 -49.6,94.5 -12.8,23.3 -12.6,23 -14.8,23 -1.2,0 -5.9,-2.5 -10.6,-5.6 -4.7,-3.1 -12,-7.2 -16.2,-9 -4.2,-1.9 -8.5,-3.9 -9.6,-4.4 -10,-4.8 -29.3,-8 -47.6,-8 -42.8,0 -83.1,16.7 -129.6,53.6 -17.4,13.9 -54.1,53.5 -68.6,74.2 -25.9,37 -47.7,79.5 -60.1,117.2 -2.1,6.4 -8.3,27 -9,30 -0.6,2.6 -4.8,21.8 -6.6,30.50001 -1.9,8.7 -3.2,33.5 -2.5,47.5 0.7,15.3 2.3,23.8 6.7,36 3.7,10.4 4.9,12.8 10,20.5 28.9,43.4 85.6,45.9 149.2,6.7 35.5,-21.9 76.5,-58.8 117.3,-105.7 26.4,-30.40001 54.1,-67.40001 85.7,-114.70001 6.5,-9.8 12.4,-17.8 13.2,-17.8 2.6,0 3.6,2.3 15.9,36.5 19.7,54.8 38.4,78.9 67.2,86.5 21.6,5.70001 45.5,-0.7 76.8,-20.3 14.1,-8.9 18.7,-12 34.1,-23.2 8.3,-6 17,-12.4 19.5,-14.2 2.4,-1.7 9.1,-6.6 14.9,-10.8 41.4,-30.2 76.4,-48.9 100.8,-54 33.7,-7 69.5,10.5 117.7,57.5 17.2,16.7 31.7,28.5 40.5,33 10.9,5.6 26.3,8.5 31,6 3.2,-1.7 4.2,-6.9 3.1,-15.6 -1.6,-12.4 -7.5,-27 -15.8,-38.7 -25.5,-36.4 -64.6,-72.8 -91.8,-85.7 -14.6,-6.9 -18.1,-8.2 -31.8,-11.7 -13.9,-3.6 -14.5,-3.7 -33.2,-3.6 -18.6,0 -19.3,0.1 -32.8,3.6 -7.6,2 -16.8,4.8 -20.5,6.3 -7.3,2.8 -31,14.3 -35.4,17.2 -1.5,0.9 -6,3.7 -10,6.1 -16,9.7 -32.8,21.4 -67.3,47.1 -35.6,26.5 -64.6,43.5 -77.9,45.7 -4.3,0.7 -8.5,-1.5 -12.5,-6.5 -3.7,-4.8 -11.1,-20.6 -15.3,-32.7 -1.7,-4.9 -3.5,-9.8 -4,-10.8 -0.5,-0.9 -2.9,-7.4 -5.4,-14.5 -9.3,-26.2 -10.3,-28.9 -14.4,-39.2 -2.3,-5.8 -5.9,-14.1 -7.9,-18.5 -2.1,-4.4 -4.1,-9.4 -4.4,-11.2 -0.7,-3.4 -0.8,-3.1 9.8,-22.3 3.2,-5.8 7.4,-13.4 9.3,-17 1.9,-3.6 6.2,-11.7 9.7,-18 6.7,-12.3 38,-74.9 45.7,-91.5 2.6,-5.5 7.2,-15.3 10.2,-21.7 3.1,-6.5 5.6,-12 5.6,-12.2 0,-0.3 1.1,-2.9 2.4,-5.8 1.3,-2.9 5.2,-11.8 8.6,-19.8 3.5,-8 7.9,-18.3 10,-23 4.2,-9.6 9.6,-23.1 25.4,-63.7 12.1,-31.2 32.1,-91.7 40.1,-121.8 1.5,-5.5 3.1,-11.4 3.6,-13 0.4,-1.7 1.9,-7.7 3.3,-13.5 1.4,-5.8 3.2,-13 4,-16 1.7,-6.4 3.9,-15.6 6,-25.5 0.8,-3.9 2.1,-10.2 3,-14 2.8,-13.4 4.6,-24.2 7.6,-46 5.9,-43.4 6.4,-50.1 6.4,-92.5 0,-35.4 -0.2,-40.9 -2.1,-53 -2.3,-14.3 -6.6,-34.200004 -8.8,-40.000004 -11.1,-29.7 -24.3,-48.1 -43.5,-60.6 C 883,4.6567863 860.8,-1.0432137 837,0.15678636 Z M 623.6,760.35679 c 12.1,3.9 24.3,11.5 26.6,16.6 1.1,2.5 -0.7,6 -15.7,30 -22.7,36.1 -44.6,68 -69.6,101 -35.7,47.2 -59.7,74.7 -89.5,102.50001 -14.5,13.6 -39.9,33.3 -48.4,37.7 -1.9,1 -5.5,3 -8,4.4 -7.3,4.2 -14.8,6.3 -17.5,5.1 -8.3,-3.8 -8.9,-43.2 -1.2,-74.70001 7,-28.5 13.5,-46.2 26.2,-71.5 8.7,-17.4 16.2,-30.3 24.8,-42.8 2.9,-4.1 6.6,-9.6 8.3,-12.1 13.6,-20.3 41.5,-49.3 63.9,-66.2 21.4,-16.3 51.1,-30.1 69.5,-32.3 7.8,-0.9 24.6,0.3 30.6,2.3 z"
     id="path1"
     style="fill:url(#linearGradient2);fill-opacity:1;stroke:none;stroke-width:0.1" />
</svg>
