 <svg  version="1.0" xmlns="http://www.w3.org/2000/svg"  width="1500.000000pt" height="1500.000000pt" viewBox="0 0 1500.000000 1500.000000"  preserveAspectRatio="xMidYMid meet">  <g transform="translate(0.000000,1500.000000) scale(0.100000,-0.100000)" fill="#ffffff" stroke="none"> <path d="M8910 13873 c-184 -10 -404 -61 -644 -149 -525 -194 -1258 -664 -1991 -1278 -151 -126 -325 -275 -346 -295 -8 -9 -44 -41 -79 -71 -85 -73 -172 -151 -245 -220 -33 -31 -107 -99 -165 -151 -58 -52 -306 -294 -551 -539 -445 -445 -624 -633 -1180 -1241 -82 -90 -337 -378 -445 -504 -28 -33 -96 -112 -151 -175 -343 -399 -821 -986 -1103 -1355 -333 -435 -592 -785 -748 -1009 -175 -250 -462 -687 -462 -702 0 -4 -20 -40 -45 -80 -25 -39 -45 -74 -45 -77 0 -4 -14 -29 -30 -58 -59 -99 -140 -265 -140 -286 0 -37 38 -73 76 -73 60 0 163 112 471 515 43 55 122 156 178 225 56 69 129 161 163 205 34 44 82 105 107 135 25 30 66 82 92 115 155 197 560 682 708 850 44 49 111 126 149 170 38 44 96 109 130 145 34 36 74 81 90 100 15 19 76 87 135 150 59 63 132 142 161 175 80 89 268 290 415 444 72 75 190 199 264 276 368 384 1275 1274 1621 1590 36 33 101 93 145 135 112 105 253 232 365 330 52 46 118 104 145 129 82 74 127 113 180 156 28 22 86 71 130 110 44 39 123 105 175 147 52 42 149 120 215 174 135 109 140 113 362 279 758 568 1341 894 1798 1006 102 25 244 28 312 5 199 -66 303 -364 303 -871 0 -175 -19 -475 -34 -546 -3 -13 -15 -87 -26 -164 -33 -214 -108 -562 -164 -760 -8 -27 -26 -95 -41 -150 -40 -151 -118 -404 -169 -550 -120 -344 -189 -535 -224 -620 -128 -315 -291 -702 -342 -811 -22 -46 -40 -86 -40 -89 0 -2 -20 -47 -45 -99 -25 -53 -45 -98 -45 -100 0 -7 -174 -365 -287 -591 -176 -352 -308 -604 -496 -945 -128 -233 -126 -230 -148 -230 -12 0 -59 25 -106 56 -47 31 -120 72 -162 90 -42 19 -85 39 -96 44 -100 48 -293 80 -476 80 -428 0 -831 -167 -1296 -536 -174 -139 -541 -535 -686 -742 -259 -370 -477 -795 -601 -1172 -21 -64 -83 -270 -90 -300 -6 -26 -48 -218 -66 -305 -19 -87 -32 -335 -25 -475 7 -153 23 -238 67 -360 37 -104 49 -128 100 -205 289 -434 856 -459 1492 -67 355 219 765 588 1173 1057 264 304 541 674 857 1147 65 98 124 178 132 178 26 0 36 -23 159 -365 197 -548 384 -789 672 -865 216 -57 455 7 768 203 141 89 187 120 341 232 83 60 170 124 195 142 24 17 91 66 149 108 414 302 764 489 1008 540 337 70 695 -105 1177 -575 172 -167 317 -285 405 -330 109 -56 263 -85 310 -60 32 17 42 69 31 156 -16 124 -75 270 -158 387 -255 364 -646 728 -918 857 -146 69 -181 82 -318 117 -139 36 -145 37 -332 36 -186 0 -193 -1 -328 -36 -76 -20 -168 -48 -205 -63 -73 -28 -310 -143 -354 -172 -15 -9 -60 -37 -100 -61 -160 -97 -328 -214 -673 -471 -356 -265 -646 -435 -779 -457 -43 -7 -85 15 -125 65 -37 48 -111 206 -153 327 -17 49 -35 98 -40 108 -5 9 -29 74 -54 145 -93 262 -103 289 -144 392 -23 58 -59 141 -79 185 -21 44 -41 94 -44 112 -7 34 -8 31 98 223 32 58 74 134 93 170 19 36 62 117 97 180 67 123 380 749 457 915 26 55 72 153 102 217 31 65 56 120 56 122 0 3 11 29 24 58 13 29 52 118 86 198 35 80 79 183 100 230 42 96 96 231 254 637 121 312 321 917 401 1218 15 55 31 114 36 130 4 17 19 77 33 135 14 58 32 130 40 160 17 64 39 156 60 255 8 39 21 102 30 140 28 134 46 242 76 460 59 434 64 501 64 925 0 354 -2 409 -21 530 -23 143 -66 342 -88 400 -111 297 -243 481 -435 606 -190 122 -412 179 -650 167z m-2134 -7602 c121 -39 243 -115 266 -166 11 -25 -7 -60 -157 -300 -227 -361 -446 -680 -696 -1010 -357 -472 -597 -747 -895 -1025 -145 -136 -399 -333 -484 -377 -19 -10 -55 -30 -80 -44 -73 -42 -148 -63 -175 -51 -83 38 -89 432 -12 747 70 285 135 462 262 715 87 174 162 303 248 428 29 41 66 96 83 121 136 203 415 493 639 662 214 163 511 301 695 323 78 9 246 -3 306 -23z"/> </g> </svg> 